<?xml version="1.0" encoding="utf-8"?>
<!-- Generator: Adobe Illustrator 17.0.0, SVG Export Plug-In . SVG Version: 6.00 Build 0)  -->
<!DOCTYPE svg PUBLIC "-//W3C//DTD SVG 1.1//EN" "http://www.w3.org/Graphics/SVG/1.1/DTD/svg11.dtd">
<svg version="1.1" id="Objects" xmlns="http://www.w3.org/2000/svg" xmlns:xlink="http://www.w3.org/1999/xlink" x="0px" y="0px"
	 width="180px" height="180.002px" viewBox="0 0 180 180.002" enable-background="new 0 0 180 180.002" xml:space="preserve">
<g>
	<g>
		<g>
			<path fill="#252525" d="M78.954,128.634c-5.008-0.066-8.759-1.888-11.156-5.437c-1.221-1.816-1.772-3.631-2.003-4.648
				C68.937,118.63,77.119,119.716,78.954,128.634"/>
			<path fill="#252525" d="M62.282,124.327c-4.007-2.344-6.173-5.562-6.448-9.591c-0.15-2.144,0.3-4.007,0.639-5.043
				c0.977,0.598,2.635,1.772,4.019,3.503C63.108,116.451,63.709,120.195,62.282,124.327"/>
			<path fill="#252525" d="M70.27,137.467c-3.068,0-5.634-0.811-6.962-1.327c1.596-1.446,5.716-4.58,11.425-4.58
				c2.204,0,4.458,0.463,6.705,1.381C78.277,135.946,74.527,137.467,70.27,137.467"/>
			<path fill="#252525" d="M57.249,133.561c-3.375,0-6.217-1.146-7.575-1.809c1.471-1.337,5.284-4.273,10.467-4.273
				c2.398,0,4.827,0.617,7.249,1.853C64.442,132.14,61.036,133.561,57.249,133.561"/>
			<path fill="#252525" d="M46.612,127.682c-4.833,0-8.508-2.533-9.985-3.741c1.408-0.786,4.501-2.219,8.22-2.219
				c3.494,0,6.717,1.249,9.616,3.712C51.89,126.928,49.254,127.682,46.612,127.682"/>
			<path fill="#252525" d="M37.641,118.549c-6.179,0-10.123-3.994-11.507-5.675c1.152-0.379,3.281-0.955,5.785-0.955
				c4.633,0,8.464,1.881,11.388,5.597C41.372,118.204,39.469,118.549,37.641,118.549"/>
			<path fill="#252525" d="M30.442,108.253c-3.957,0-7.356-1.402-10.098-4.166c-1.296-1.306-2.141-2.62-2.592-3.437
				c0.714-0.119,1.784-0.247,3.049-0.247c4.163,0,9.71,1.334,12.978,7.528C32.626,108.14,31.518,108.253,30.442,108.253"/>
			<path fill="#252525" d="M38.605,109.427c-2.611-3.897-3.03-7.844-1.221-11.741c0.97-2.097,2.379-3.669,3.212-4.476
				c0.62,0.958,1.615,2.773,2.053,5.015C43.463,102.387,42.105,106.153,38.605,109.427"/>
			<path fill="#252525" d="M48.271,117.794c-3.074-3.647-3.969-7.553-2.654-11.654c0.707-2.204,1.909-3.919,2.642-4.82
				c0.732,0.901,1.941,2.617,2.648,4.817C52.234,110.235,51.345,114.147,48.271,117.794"/>
			<path fill="#252525" d="M30.517,98.052c-2.429-4.032-2.654-8.019-0.664-11.882c1.071-2.088,2.554-3.606,3.425-4.398
				c0.57,0.992,1.477,2.858,1.809,5.134C35.7,91.134,34.167,94.884,30.517,98.052"/>
			<path fill="#252525" d="M27.662,98.537c-5.115-0.081-9.071-1.938-11.757-5.515c-1.383-1.837-2.078-3.697-2.385-4.758
				c1.452,0.05,4.232,0.335,6.999,1.631C24.169,91.613,26.566,94.521,27.662,98.537"/>
			<path fill="#252525" d="M22.422,88.808c-4.727-1.662-7.725-4.608-8.915-8.759c-0.639-2.21-0.582-4.216-0.47-5.321
				c1.139,0.426,3.143,1.321,5.008,2.87C21.502,80.473,22.973,84.244,22.422,88.808"/>
			<path fill="#252525" d="M24.45,83.606c-1.321-4.461-0.495-8.401,2.467-11.732c1.584-1.778,3.393-2.924,4.432-3.5
				c0.294,1.086,0.695,3.099,0.426,5.384C31.28,77.997,28.814,81.308,24.45,83.606"/>
			<path fill="#252525" d="M18.828,75.699c-3.844-2.974-5.615-6.636-5.265-10.884c0.188-2.298,0.976-4.207,1.477-5.23
				c0.92,0.748,2.498,2.194,3.7,4.213C20.97,67.551,21.001,71.555,18.828,75.699"/>
			<path fill="#252525" d="M19.911,60.937c-3.124-3.631-4.057-7.559-2.761-11.685c0.695-2.197,1.866-3.9,2.579-4.798
				c0.739,0.898,1.966,2.601,2.698,4.805C23.793,53.334,22.948,57.262,19.911,60.937"/>
			<path fill="#252525" d="M23.305,67.977c-0.57-4.723,0.983-8.53,4.614-11.331c1.991-1.54,4.126-2.366,5.303-2.751
				c0.106,1.127,0.169,3.249-0.532,5.537C31.399,63.607,28.244,66.478,23.305,67.977"/>
			<path fill="#252525" d="M26.335,54.677c-0.275-4.789,1.553-8.423,5.44-10.827c2.16-1.337,4.432-1.932,5.641-2.172
				c0.038,1.121-0.031,3.28-0.914,5.515C34.905,51.227,31.493,53.734,26.335,54.677"/>
			<path fill="#252525" d="M99.938,128.737c5.002-0.06,8.758-1.884,11.156-5.434c1.215-1.815,1.765-3.631,1.997-4.648
				C109.955,118.739,101.766,119.822,99.938,128.737"/>
			<path fill="#252525" d="M117.774,125.188c4-2.348,6.166-5.566,6.442-9.591c0.144-2.147-0.3-4.01-0.639-5.043
				c-0.977,0.595-2.629,1.769-4.025,3.5C116.942,117.312,116.341,121.053,117.774,125.188"/>
			<path fill="#252525" d="M109.698,138.325c3.068,0,5.635-0.808,6.962-1.327c-1.596-1.446-5.716-4.583-11.419-4.583
				c-2.204,0-4.464,0.47-6.711,1.387C101.691,136.807,105.448,138.325,109.698,138.325"/>
			<path fill="#252525" d="M123.177,134.422c3.375,0,6.21-1.149,7.569-1.809c-1.471-1.34-5.278-4.276-10.461-4.276
				c-2.398,0-4.827,0.623-7.243,1.856C115.978,132.998,119.383,134.422,123.177,134.422"/>
			<path fill="#252525" d="M133.382,128.54c4.839,0,8.514-2.536,9.992-3.738c-1.408-0.789-4.501-2.219-8.22-2.219
				c-3.494,0-6.724,1.246-9.616,3.709C128.11,127.786,130.74,128.54,133.382,128.54"/>
			<path fill="#252525" d="M142.353,119.406c6.185,0,10.123-3.991,11.513-5.672c-1.152-0.382-3.28-0.952-5.778-0.952
				c-4.639,0-8.47,1.878-11.394,5.591C138.634,119.065,140.537,119.406,142.353,119.406"/>
			<path fill="#252525" d="M149.552,109.111c3.963,0,7.362-1.402,10.104-4.163c1.296-1.308,2.141-2.623,2.592-3.44
				c-0.72-0.116-1.784-0.247-3.055-0.247c-4.157,0-9.704,1.337-12.972,7.531C147.361,109.004,148.482,109.111,149.552,109.111"/>
			<path fill="#252525" d="M141.395,110.285c2.611-3.897,3.024-7.841,1.221-11.739c-0.977-2.1-2.379-3.665-3.218-4.479
				c-0.613,0.958-1.609,2.773-2.047,5.014C136.537,103.248,137.895,107.011,141.395,110.285"/>
			<path fill="#252525" d="M131.729,118.655c3.074-3.647,3.969-7.556,2.654-11.654c-0.707-2.204-1.909-3.922-2.642-4.823
				c-0.732,0.901-1.941,2.62-2.654,4.82C127.766,111.092,128.655,115.008,131.729,118.655"/>
			<path fill="#252525" d="M149.483,98.913c2.429-4.028,2.654-8.023,0.657-11.885c-1.064-2.082-2.548-3.606-3.418-4.398
				c-0.57,0.992-1.484,2.858-1.816,5.134C144.293,91.992,145.834,95.742,149.483,98.913"/>
			<path fill="#252525" d="M152.338,99.395c5.115-0.078,9.065-1.934,11.757-5.512c1.377-1.841,2.072-3.7,2.385-4.758
				c-1.452,0.05-4.238,0.329-7.006,1.631C155.831,92.471,153.434,95.382,152.338,99.395"/>
			<path fill="#252525" d="M157.572,89.669c4.733-1.665,7.732-4.611,8.921-8.761c0.639-2.21,0.582-4.213,0.47-5.321
				c-1.139,0.426-3.149,1.321-5.015,2.873C158.492,81.33,157.021,85.102,157.572,89.669"/>
			<path fill="#252525" d="M155.55,84.467c1.327-4.464,0.495-8.405-2.473-11.735c-1.578-1.778-3.387-2.92-4.426-3.496
				c-0.301,1.089-0.701,3.096-0.426,5.381C148.72,78.854,151.186,82.169,155.55,84.467"/>
			<path fill="#252525" d="M161.171,76.56c3.838-2.977,5.616-6.636,5.259-10.89c-0.182-2.294-0.971-4.201-1.478-5.228
				c-0.92,0.748-2.492,2.198-3.693,4.217C159.024,68.409,158.999,72.412,161.171,76.56"/>
			<path fill="#252525" d="M160.082,61.791c3.13-3.628,4.063-7.556,2.761-11.682c-0.689-2.191-1.866-3.897-2.573-4.795
				c-0.745,0.892-1.972,2.604-2.705,4.805C156.201,54.194,157.046,58.12,160.082,61.791"/>
			<path fill="#252525" d="M156.695,68.834c0.563-4.72-0.989-8.527-4.614-11.328c-1.991-1.543-4.132-2.373-5.303-2.751
				c-0.106,1.127-0.175,3.246,0.532,5.538C148.601,64.468,151.756,67.335,156.695,68.834"/>
			<path fill="#252525" d="M153.665,55.534c0.276-4.786-1.552-8.42-5.44-10.827c-2.166-1.337-4.439-1.932-5.647-2.169
				c-0.038,1.117,0.038,3.28,0.92,5.515C145.095,52.081,148.507,54.592,153.665,55.534"/>
		</g>
	</g>
</g>
<path fill="#C09F5D" d="M68.547,71.874l20.682,25.67l-8.294-25.67C80.935,71.874,68.547,71.874,68.547,71.874z M83.182,71.874
	l7.325,25.722l6.303-25.722C96.81,71.874,83.182,71.874,83.182,71.874z M91.622,97.543l19.91-25.67H99.24
	C99.24,71.874,91.622,97.543,91.622,97.543z M111.578,70.194l-5.969-10.207l-5.972,10.207H111.578z M103.732,59.402H91.79
	l5.969,10.557L103.732,59.402z M95.924,70.194l-5.969-10.207l-5.971,10.207H95.924z M88.207,59.402h-11.94l5.971,10.557
	C82.238,69.959,88.207,59.402,88.207,59.402z M74.391,59.987l-5.969,10.207h11.94C80.362,70.194,74.391,59.987,74.391,59.987z"/>
</svg>
